<?xml version="1.0" standalone="no"?>
<!DOCTYPE svg PUBLIC "-//W3C//DTD SVG 20010904//EN"
 "http://www.w3.org/TR/2001/REC-SVG-20010904/DTD/svg10.dtd">
<svg version="1.0" xmlns="http://www.w3.org/2000/svg"
 width="64.000000pt" height="64.000000pt" viewBox="0 0 64.000000 64.000000"
 preserveAspectRatio="xMidYMid meet">

<g transform="translate(0.000000,64.000000) scale(0.100000,-0.100000)"
fill="#000000" stroke="none">
<path d="M160 516 c-85 -46 -156 -89 -158 -95 -2 -7 5 -15 17 -18 20 -5 21
-11 21 -182 0 -124 4 -181 12 -189 16 -16 120 -16 136 0 7 7 12 38 12 70 l0
58 120 0 120 0 0 -58 c0 -32 5 -63 12 -70 7 -7 38 -12 70 -12 46 0 59 4 68 19
6 11 10 91 10 189 0 164 1 170 21 175 12 3 19 11 17 18 -3 10 -304 179 -318
179 -3 0 -75 -38 -160 -84z m286 -27 l114 -61 -2 -181 -3 -182 -35 0 -35 0 -3
144 c-1 86 -7 150 -14 158 -15 19 -281 19 -296 0 -7 -8 -13 -72 -14 -158 l-3
-144 -35 0 -35 0 -3 182 -2 181 112 61 c62 33 119 60 127 61 7 0 65 -27 127
-61z m12 -151 c3 -16 -9 -18 -137 -18 -111 0 -141 3 -141 13 0 25 14 28 144
25 115 -3 131 -5 134 -20z m2 -58 c0 -19 -7 -20 -140 -20 -133 0 -140 1 -140
20 0 19 7 20 140 20 133 0 140 -1 140 -20z m0 -60 c0 -19 -7 -20 -140 -20
-133 0 -140 1 -140 20 0 19 7 20 140 20 133 0 140 -1 140 -20z"/>
</g>
</svg>
